<svg width="96" height="96" viewBox="0 0 96 96" fill="none" xmlns="http://www.w3.org/2000/svg">
  <defs>
    <linearGradient id="bg" x1="0" y1="0" x2="1" y2="1">
      <stop stop-color="#a78bfa"/><stop offset="1" stop-color="#7c3aed"/>
    </linearGradient>
    <linearGradient id="gloss" x1="0" y1="0" x2="0" y2="1">
      <stop stop-color="#fff" stop-opacity=".28"/><stop offset=".55" stop-color="#fff" stop-opacity="0"/>
    </linearGradient>
  </defs>
  <rect width="96" height="96" rx="26" fill="url(#bg)"/>
  <rect width="96" height="96" rx="26" fill="url(#gloss)"/>
  <g stroke="#fff" stroke-width="3.5" stroke-opacity=".55">
    <path d="M28 34 48 26M28 34 48 48M28 62 48 48M28 62 48 70M48 26 68 48M48 48 68 48M48 70 68 48"/>
  </g>
  <g fill="#fff">
    <circle cx="28" cy="34" r="5.5"/><circle cx="28" cy="62" r="5.5"/>
    <circle cx="48" cy="26" r="6"/><circle cx="48" cy="48" r="6.5"/><circle cx="48" cy="70" r="6"/>
    <circle cx="68" cy="48" r="7"/>
  </g>
</svg>
