<svg width="96" height="96" viewBox="0 0 96 96" fill="none" xmlns="http://www.w3.org/2000/svg">
  <defs>
    <linearGradient id="bg" x1="0" y1="0" x2="1" y2="1">
      <stop stop-color="#38bdf8"/><stop offset="1" stop-color="#a855f7"/>
    </linearGradient>
    <linearGradient id="gloss" x1="0" y1="0" x2="0" y2="1">
      <stop stop-color="#fff" stop-opacity=".28"/><stop offset=".55" stop-color="#fff" stop-opacity="0"/>
    </linearGradient>
  </defs>
  <rect width="96" height="96" rx="26" fill="url(#bg)"/>
  <rect width="96" height="96" rx="26" fill="url(#gloss)"/>
  <path d="M46 24c2 16 7 21 24 24-17 3-22 8-24 24-2-16-7-21-24-24 17-3 22-8 24-24Z" fill="#fff"/>
  <path d="M72 22c.8 6 2 7.2 8 8-6 .8-7.2 2-8 8-.8-6-2-7.2-8-8 6-.8 7.2-2 8-8Z" fill="#fff" fill-opacity=".9"/>
</svg>
