<svg width="96" height="96" viewBox="0 0 96 96" fill="none" xmlns="http://www.w3.org/2000/svg">
  <defs>
    <linearGradient id="bg" x1="0" y1="0" x2="1" y2="1">
      <stop stop-color="#fbbf24"/><stop offset="1" stop-color="#ea580c"/>
    </linearGradient>
    <linearGradient id="gloss" x1="0" y1="0" x2="0" y2="1">
      <stop stop-color="#fff" stop-opacity=".3"/><stop offset=".55" stop-color="#fff" stop-opacity="0"/>
    </linearGradient>
  </defs>
  <rect width="96" height="96" rx="26" fill="url(#bg)"/>
  <rect width="96" height="96" rx="26" fill="url(#gloss)"/>
  <path d="M28 30h40a4 4 0 0 1 4 4v22a4 4 0 0 1-4 4H44L33 71V60h-5a4 4 0 0 1-4-4V34a4 4 0 0 1 4-4Z" fill="#fff"/>
  <g stroke="#ea580c" stroke-width="3.6" stroke-linecap="round">
    <path d="M33 40h30M33 50h20"/>
  </g>
</svg>
