<svg width="96" height="96" viewBox="0 0 96 96" fill="none" xmlns="http://www.w3.org/2000/svg">
  <defs>
    <linearGradient id="bg" x1="0" y1="0" x2="1" y2="1">
      <stop stop-color="#38bdf8"/><stop offset="1" stop-color="#0284c7"/>
    </linearGradient>
    <linearGradient id="gloss" x1="0" y1="0" x2="0" y2="1">
      <stop stop-color="#fff" stop-opacity=".28"/><stop offset=".55" stop-color="#fff" stop-opacity="0"/>
    </linearGradient>
  </defs>
  <rect width="96" height="96" rx="26" fill="url(#bg)"/>
  <rect width="96" height="96" rx="26" fill="url(#gloss)"/>
  <g fill="#fff" fill-opacity=".7">
    <circle cx="35" cy="41" r="7"/>
    <path d="M21 67c0-9 6-14 14-14 2 0 4 .3 6 1l-3 13H21Z"/>
  </g>
  <g fill="#fff">
    <circle cx="55" cy="38" r="9.5"/>
    <path d="M37 69c0-10 8-18 18-18s18 8 18 18a3 3 0 0 1-3 3H40a3 3 0 0 1-3-3Z"/>
  </g>
</svg>
